<svg xmlns="http://www.w3.org/2000/svg" xmlns:xlink="http://www.w3.org/1999/xlink" width="500" zoomAndPan="magnify" viewBox="0 0 375 374.999991" height="500" preserveAspectRatio="xMidYMid meet" version="1.0"><defs><g/></defs><g fill="#000000" fill-opacity="1"><g transform="translate(42.790414, 262.417824)"><g><path d="M 199.609375 -156.09375 C 200.753906 -155.632812 201.554688 -154.90625 202.015625 -153.90625 C 202.472656 -152.90625 202.472656 -151.832031 202.015625 -150.6875 C 201.316406 -149.007812 200.390625 -147.429688 199.234375 -145.953125 C 196.867188 -142.921875 194.179688 -140.09375 191.171875 -137.46875 C 176.140625 -123.738281 159.367188 -112.4375 140.859375 -103.5625 C 140.015625 -103.15625 139.175781 -102.726562 138.34375 -102.28125 C 137.09375 -101.632812 135.8125 -101.015625 134.5 -100.421875 C 134.144531 -100.210938 133.789062 -100.195312 133.4375 -100.375 C 133.09375 -100.550781 132.847656 -100.847656 132.703125 -101.265625 C 132.660156 -101.472656 132.695312 -101.722656 132.8125 -102.015625 C 132.925781 -102.304688 133.078125 -102.515625 133.265625 -102.640625 C 134.773438 -103.585938 136.375 -104.492188 138.0625 -105.359375 C 156.5 -114.972656 173.300781 -126.925781 188.46875 -141.21875 C 190.300781 -143.0625 192.054688 -144.960938 193.734375 -146.921875 C 193.953125 -147.210938 194.203125 -147.472656 194.484375 -147.703125 C 195.347656 -148.679688 195.898438 -149.832031 196.140625 -151.15625 C 196.265625 -151.957031 195.941406 -152.554688 195.171875 -152.953125 C 194.316406 -153.304688 193.414062 -153.453125 192.46875 -153.390625 C 192.300781 -153.359375 192.109375 -153.359375 191.890625 -153.390625 C 188.066406 -153.410156 184.289062 -153.113281 180.5625 -152.5 C 176.84375 -151.894531 173.148438 -151.132812 169.484375 -150.21875 C 161.179688 -148.03125 152.96875 -145.535156 144.84375 -142.734375 C 136.726562 -139.929688 128.660156 -136.972656 120.640625 -133.859375 C 96.847656 -124.648438 73.6875 -114.109375 51.15625 -102.234375 C 43.125 -98.035156 35.203125 -93.65625 27.390625 -89.09375 C 19.578125 -84.539062 11.921875 -79.695312 4.421875 -74.5625 C 2.398438 -73.101562 0.378906 -71.664062 -1.640625 -70.25 C -2.710938 -69.4375 -3.828125 -68.613281 -4.984375 -67.78125 C -5.179688 -67.6875 -5.320312 -67.554688 -5.40625 -67.390625 C -6.15625 -66.835938 -6.957031 -66.359375 -7.8125 -65.953125 C -8.207031 -65.710938 -8.644531 -65.566406 -9.125 -65.515625 C -9.601562 -65.472656 -10 -65.617188 -10.3125 -65.953125 C -10.65625 -66.421875 -10.726562 -66.859375 -10.53125 -67.265625 C -10.332031 -67.679688 -10.035156 -68.054688 -9.640625 -68.390625 C -9.597656 -68.460938 -9.507812 -68.535156 -9.375 -68.609375 C -7.519531 -70.140625 -5.585938 -71.65625 -3.578125 -73.15625 C 2.898438 -77.875 9.554688 -82.332031 16.390625 -86.53125 C 23.222656 -90.738281 30.160156 -94.773438 37.203125 -98.640625 C 65.585938 -114.285156 94.925781 -127.796875 125.21875 -139.171875 C 132.519531 -141.910156 139.84375 -144.519531 147.1875 -147 C 154.53125 -149.488281 161.972656 -151.664062 169.515625 -153.53125 C 171.691406 -154.007812 173.898438 -154.488281 176.140625 -154.96875 C 177.128906 -155.207031 178.164062 -155.445312 179.25 -155.6875 C 183.96875 -156.457031 188.738281 -156.875 193.5625 -156.9375 C 195.601562 -157.019531 197.617188 -156.738281 199.609375 -156.09375 Z M 97.3125 -49.390625 C 97.738281 -49.359375 98.160156 -49.265625 98.578125 -49.109375 C 99.003906 -48.960938 99.332031 -48.773438 99.5625 -48.546875 C 99.789062 -48.328125 99.859375 -48.085938 99.765625 -47.828125 C 99.515625 -47.378906 99.191406 -47.09375 98.796875 -46.96875 C 98.410156 -46.851562 98.03125 -46.765625 97.65625 -46.703125 C 97.570312 -46.679688 97.5 -46.664062 97.4375 -46.65625 C 90.726562 -45.570312 84.019531 -44.164062 77.3125 -42.4375 C 73.789062 -41.539062 70.21875 -40.691406 66.59375 -39.890625 C 65.40625 -39.640625 64.691406 -38.882812 64.453125 -37.625 C 64.242188 -36.613281 63.984375 -35.597656 63.671875 -34.578125 C 63.535156 -34.003906 63.414062 -33.414062 63.3125 -32.8125 C 62.75 -30.632812 62.226562 -28.515625 61.75 -26.453125 C 57.5625 -8.492188 53.070312 9.394531 48.28125 27.21875 C 46.894531 32.175781 45.359375 37.078125 43.671875 41.921875 C 43.679688 41.984375 43.660156 42.046875 43.609375 42.109375 C 43.109375 43.679688 42.390625 45.21875 41.453125 46.71875 C 40.660156 48.082031 39.414062 48.707031 37.71875 48.59375 C 37.238281 48.53125 36.816406 48.363281 36.453125 48.09375 C 36.085938 47.832031 35.867188 47.460938 35.796875 46.984375 C 35.703125 45.890625 35.722656 44.789062 35.859375 43.6875 C 35.972656 42.882812 36.09375 42.054688 36.21875 41.203125 C 36.800781 36.898438 37.460938 32.597656 38.203125 28.296875 C 41.566406 9.242188 46.019531 -9.546875 51.5625 -28.078125 C 52.070312 -29.835938 52.734375 -31.585938 53.546875 -33.328125 C 53.734375 -33.742188 54.054688 -34.023438 54.515625 -34.171875 C 54.984375 -34.316406 55.445312 -34.351562 55.90625 -34.28125 C 56.707031 -34.1875 57.082031 -33.648438 57.03125 -32.671875 C 56.988281 -31.691406 56.773438 -30.539062 56.390625 -29.21875 C 56.003906 -27.894531 55.597656 -26.710938 55.171875 -25.671875 C 54.847656 -24.828125 54.628906 -24.207031 54.515625 -23.8125 C 48.898438 -3.863281 45.84375 7.734375 45.34375 10.984375 C 45.132812 12.109375 45.0625 12.851562 45.125 13.21875 C 45.1875 13.59375 45.335938 13.726562 45.578125 13.625 C 45.828125 13.53125 46.085938 13.3125 46.359375 12.96875 C 46.628906 12.632812 46.875 12.285156 47.09375 11.921875 C 47.3125 11.554688 47.460938 11.316406 47.546875 11.203125 C 47.753906 10.191406 47.992188 9.15625 48.265625 8.09375 C 49.140625 4.632812 50 1.191406 50.84375 -2.234375 C 51.125 -3.242188 51.390625 -4.257812 51.640625 -5.28125 C 53.441406 -12.71875 55.222656 -20.15625 56.984375 -27.59375 C 57.085938 -27.882812 57.207031 -28.300781 57.34375 -28.84375 C 57.707031 -29.925781 58.0625 -31.1875 58.40625 -32.625 C 58.757812 -34.0625 58.925781 -35.328125 58.90625 -36.421875 C 58.894531 -37.523438 58.523438 -38.050781 57.796875 -38 C 56.367188 -37.769531 54.921875 -37.535156 53.453125 -37.296875 C 52.523438 -37.140625 51.585938 -36.984375 50.640625 -36.828125 C 49.835938 -36.703125 48.992188 -36.566406 48.109375 -36.421875 C 45.328125 -35.972656 42.550781 -35.566406 39.78125 -35.203125 C 39.03125 -35.117188 38.3125 -35.1875 37.625 -35.40625 C 37.5625 -35.457031 37.492188 -35.554688 37.421875 -35.703125 C 37.347656 -35.859375 37.269531 -36.03125 37.1875 -36.21875 C 37.175781 -36.269531 37.171875 -36.328125 37.171875 -36.390625 C 37.160156 -36.441406 37.179688 -36.507812 37.234375 -36.59375 C 37.296875 -36.675781 37.351562 -36.753906 37.40625 -36.828125 C 37.738281 -37.148438 38.082031 -37.367188 38.4375 -37.484375 C 38.800781 -37.597656 39.1875 -37.6875 39.59375 -37.75 C 39.695312 -37.769531 39.804688 -37.785156 39.921875 -37.796875 C 41.484375 -38.109375 43.046875 -38.425781 44.609375 -38.75 C 48.648438 -39.664062 52.710938 -40.488281 56.796875 -41.21875 C 58.191406 -41.445312 59.234375 -41.921875 59.921875 -42.640625 C 60.609375 -43.359375 61.066406 -44.390625 61.296875 -45.734375 C 62.472656 -51.285156 63.671875 -56.832031 64.890625 -62.375 C 66.191406 -68.269531 67.457031 -74.160156 68.6875 -80.046875 C 69.632812 -84.566406 70.484375 -89.085938 71.234375 -93.609375 C 71.671875 -96.003906 72.117188 -98.425781 72.578125 -100.875 C 72.554688 -100.957031 72.570312 -101.035156 72.625 -101.109375 C 72.78125 -102.160156 73.046875 -103.144531 73.421875 -104.0625 C 73.660156 -104.539062 74 -104.828125 74.4375 -104.921875 C 74.882812 -105.015625 75.359375 -105.046875 75.859375 -105.015625 C 76.265625 -104.878906 76.601562 -104.6875 76.875 -104.4375 C 77.144531 -104.1875 77.285156 -103.875 77.296875 -103.5 C 77.316406 -102.03125 77.257812 -100.566406 77.125 -99.109375 C 76.144531 -91.921875 74.882812 -84.8125 73.34375 -77.78125 C 73.226562 -77.570312 73.15625 -77.363281 73.125 -77.15625 C 71.769531 -70.550781 70.332031 -63.96875 68.8125 -57.40625 C 68.132812 -54.394531 67.453125 -51.382812 66.765625 -48.375 C 66.773438 -48.3125 66.78125 -48.28125 66.78125 -48.28125 C 66.59375 -47.40625 66.421875 -46.5 66.265625 -45.5625 C 66.066406 -44.71875 66.140625 -44.132812 66.484375 -43.8125 C 66.828125 -43.5 67.46875 -43.421875 68.40625 -43.578125 C 69.675781 -43.773438 70.925781 -44.050781 72.15625 -44.40625 C 72.71875 -44.5 73.289062 -44.59375 73.875 -44.6875 C 73.988281 -44.695312 74.066406 -44.738281 74.109375 -44.8125 C 81.296875 -46.25 88.453125 -47.679688 95.578125 -49.109375 C 96.148438 -49.242188 96.726562 -49.335938 97.3125 -49.390625 Z M 97.3125 -49.390625 "/></g></g><g transform="translate(149.180669, 245.13752)"><g><path d="M 27.546875 -26.890625 C 28.285156 -26.617188 28.488281 -25.691406 28.15625 -24.109375 C 27.507812 -22.878906 26.789062 -21.71875 26 -20.625 C 25.207031 -19.53125 24.316406 -18.523438 23.328125 -17.609375 C 23.234375 -17.597656 23.191406 -17.5625 23.203125 -17.5 C 22.546875 -16.851562 21.832031 -16.28125 21.0625 -15.78125 C 14.625 -12.21875 10.898438 -13.09375 9.890625 -18.40625 C 7.515625 -15.550781 5.898438 -13.78125 5.046875 -13.09375 C 3.003906 -11.382812 0.65625 -10.382812 -2 -10.09375 C -3.945312 -9.894531 -5.359375 -10.273438 -6.234375 -11.234375 C -7.117188 -12.191406 -7.296875 -13.648438 -6.765625 -15.609375 C -5.972656 -18.710938 -4.597656 -21.578125 -2.640625 -24.203125 C -0.335938 -27.160156 2.34375 -29.664062 5.40625 -31.71875 C 7.03125 -32.882812 8.832031 -33.53125 10.8125 -33.65625 C 12.769531 -33.851562 14.117188 -32.941406 14.859375 -30.921875 C 15.140625 -30.316406 15.078125 -29.738281 14.671875 -29.1875 C 14.140625 -28.507812 13.429688 -28.257812 12.546875 -28.4375 C 12.484375 -28.425781 12.398438 -28.425781 12.296875 -28.4375 C 12.191406 -28.445312 12.101562 -28.476562 12.03125 -28.53125 C 11.019531 -29.539062 10.109375 -29.882812 9.296875 -29.5625 C 8.492188 -29.238281 7.664062 -28.710938 6.8125 -27.984375 C 2.820312 -24.691406 0.132812 -20.578125 -1.25 -15.640625 C -1.34375 -15.410156 -1.382812 -15.171875 -1.375 -14.921875 C -1.363281 -14.679688 -1.253906 -14.503906 -1.046875 -14.390625 C -0.515625 -14.296875 0.046875 -14.425781 0.640625 -14.78125 C 1.234375 -15.132812 1.800781 -15.59375 2.34375 -16.15625 C 2.894531 -16.726562 3.363281 -17.207031 3.75 -17.59375 C 3.789062 -17.6875 3.8125 -17.734375 3.8125 -17.734375 C 5.601562 -19.816406 7.351562 -21.9375 9.0625 -24.09375 C 9.789062 -25.164062 10.8125 -25.867188 12.125 -26.203125 C 14 -26.503906 14.921875 -25.785156 14.890625 -24.046875 C 14.816406 -23.398438 14.726562 -22.75 14.625 -22.09375 C 14.320312 -19.25 14.550781 -17.644531 15.3125 -17.28125 C 16.070312 -16.914062 17.125 -17.082031 18.46875 -17.78125 C 19.8125 -18.488281 21.078125 -19.625 22.265625 -21.1875 C 23.460938 -22.75 24.457031 -24.160156 25.25 -25.421875 C 26.050781 -26.679688 26.816406 -27.171875 27.546875 -26.890625 Z M 27.546875 -26.890625 "/></g></g><g transform="translate(177.599984, 240.521549)"><g><path d="M 31.5625 -25.625 C 31.113281 -25.09375 30.632812 -24.59375 30.125 -24.125 C 28.476562 -22.675781 26.972656 -21.503906 25.609375 -20.609375 C 24.253906 -19.710938 22.628906 -18.757812 20.734375 -17.75 C 17.898438 -16.382812 15.957031 -16.273438 14.90625 -17.421875 C 13.863281 -18.578125 13.441406 -20.34375 13.640625 -22.71875 C 13.921875 -26.101562 14 -28.5625 13.875 -30.09375 C 13.75 -31.632812 13.160156 -32.078125 12.109375 -31.421875 C 11.054688 -30.773438 9.265625 -28.875 6.734375 -25.71875 C 3.160156 -21.476562 0.28125 -16.820312 -1.90625 -11.75 C -2.175781 -11.050781 -2.550781 -10.457031 -3.03125 -9.96875 C -3.507812 -9.488281 -4.148438 -9.1875 -4.953125 -9.0625 C -5.722656 -8.9375 -6.304688 -9.039062 -6.703125 -9.375 C -7.109375 -9.71875 -7.21875 -10.257812 -7.03125 -11 C -5.945312 -14.976562 -4.8125 -18.945312 -3.625 -22.90625 C -1.632812 -29.738281 0.316406 -36.539062 2.234375 -43.3125 C 3.679688 -48.375 5.09375 -53.441406 6.46875 -58.515625 C 7.332031 -61.492188 8.171875 -64.472656 8.984375 -67.453125 C 9.054688 -67.703125 9.140625 -67.960938 9.234375 -68.234375 C 9.296875 -68.578125 9.378906 -68.914062 9.484375 -69.25 C 9.597656 -69.59375 9.726562 -69.96875 9.875 -70.375 C 9.988281 -70.707031 10.265625 -71.015625 10.703125 -71.296875 C 11.140625 -71.578125 11.585938 -71.785156 12.046875 -71.921875 C 12.515625 -72.054688 12.882812 -72.085938 13.15625 -72.015625 C 13.5625 -71.804688 13.8125 -71.5625 13.90625 -71.28125 C 14 -71.007812 14 -70.703125 13.90625 -70.359375 C 13.851562 -70.296875 13.835938 -70.195312 13.859375 -70.0625 C 13.578125 -68.28125 13.25 -66.550781 12.875 -64.875 C 10.65625 -55.550781 8.097656 -46.289062 5.203125 -37.09375 C 4.972656 -36.476562 4.707031 -35.734375 4.40625 -34.859375 C 3.96875 -33.617188 3.566406 -32.398438 3.203125 -31.203125 C 2.835938 -30.015625 2.773438 -29.25 3.015625 -28.90625 C 3.265625 -28.5625 4.070312 -28.988281 5.4375 -30.1875 C 5.84375 -30.582031 6.207031 -30.960938 6.53125 -31.328125 C 7.59375 -32.316406 8.65625 -33.265625 9.71875 -34.171875 C 10.625 -35.023438 11.707031 -35.582031 12.96875 -35.84375 C 15.9375 -36.53125 17.84375 -35.453125 18.6875 -32.609375 C 19.019531 -31.453125 19.164062 -30.28125 19.125 -29.09375 C 19.082031 -27.914062 18.992188 -26.75 18.859375 -25.59375 C 18.847656 -25.257812 18.835938 -24.929688 18.828125 -24.609375 C 18.628906 -22.585938 18.945312 -21.5 19.78125 -21.34375 C 20.613281 -21.1875 21.6875 -21.519531 23 -22.34375 C 24.3125 -23.175781 25.632812 -24.140625 26.96875 -25.234375 C 27.875 -25.898438 28.675781 -26.484375 29.375 -26.984375 C 30.070312 -27.484375 30.613281 -27.734375 31 -27.734375 C 31.707031 -27.734375 32.066406 -27.503906 32.078125 -27.046875 C 32.085938 -26.597656 31.914062 -26.125 31.5625 -25.625 Z M 31.5625 -25.625 "/></g></g><g transform="translate(210.305771, 235.209352)"><g><path d="M 27.546875 -26.890625 C 28.285156 -26.617188 28.488281 -25.691406 28.15625 -24.109375 C 27.507812 -22.878906 26.789062 -21.71875 26 -20.625 C 25.207031 -19.53125 24.316406 -18.523438 23.328125 -17.609375 C 23.234375 -17.597656 23.191406 -17.5625 23.203125 -17.5 C 22.546875 -16.851562 21.832031 -16.28125 21.0625 -15.78125 C 14.625 -12.21875 10.898438 -13.09375 9.890625 -18.40625 C 7.515625 -15.550781 5.898438 -13.78125 5.046875 -13.09375 C 3.003906 -11.382812 0.65625 -10.382812 -2 -10.09375 C -3.945312 -9.894531 -5.359375 -10.273438 -6.234375 -11.234375 C -7.117188 -12.191406 -7.296875 -13.648438 -6.765625 -15.609375 C -5.972656 -18.710938 -4.597656 -21.578125 -2.640625 -24.203125 C -0.335938 -27.160156 2.34375 -29.664062 5.40625 -31.71875 C 7.03125 -32.882812 8.832031 -33.53125 10.8125 -33.65625 C 12.769531 -33.851562 14.117188 -32.941406 14.859375 -30.921875 C 15.140625 -30.316406 15.078125 -29.738281 14.671875 -29.1875 C 14.140625 -28.507812 13.429688 -28.257812 12.546875 -28.4375 C 12.484375 -28.425781 12.398438 -28.425781 12.296875 -28.4375 C 12.191406 -28.445312 12.101562 -28.476562 12.03125 -28.53125 C 11.019531 -29.539062 10.109375 -29.882812 9.296875 -29.5625 C 8.492188 -29.238281 7.664062 -28.710938 6.8125 -27.984375 C 2.820312 -24.691406 0.132812 -20.578125 -1.25 -15.640625 C -1.34375 -15.410156 -1.382812 -15.171875 -1.375 -14.921875 C -1.363281 -14.679688 -1.253906 -14.503906 -1.046875 -14.390625 C -0.515625 -14.296875 0.046875 -14.425781 0.640625 -14.78125 C 1.234375 -15.132812 1.800781 -15.59375 2.34375 -16.15625 C 2.894531 -16.726562 3.363281 -17.207031 3.75 -17.59375 C 3.789062 -17.6875 3.8125 -17.734375 3.8125 -17.734375 C 5.601562 -19.816406 7.351562 -21.9375 9.0625 -24.09375 C 9.789062 -25.164062 10.8125 -25.867188 12.125 -26.203125 C 14 -26.503906 14.921875 -25.785156 14.890625 -24.046875 C 14.816406 -23.398438 14.726562 -22.75 14.625 -22.09375 C 14.320312 -19.25 14.550781 -17.644531 15.3125 -17.28125 C 16.070312 -16.914062 17.125 -17.082031 18.46875 -17.78125 C 19.8125 -18.488281 21.078125 -19.625 22.265625 -21.1875 C 23.460938 -22.75 24.457031 -24.160156 25.25 -25.421875 C 26.050781 -26.679688 26.816406 -27.171875 27.546875 -26.890625 Z M 27.546875 -26.890625 "/></g></g><g transform="translate(238.725086, 230.593381)"><g><path d="M 34.390625 -28.75 C 35.015625 -28.6875 35.363281 -28.515625 35.4375 -28.234375 C 35.519531 -27.953125 35.5625 -27.8125 35.5625 -27.8125 C 35.0625 -26.5 34.453125 -25.269531 33.734375 -24.125 C 32.078125 -21.550781 30.007812 -19.367188 27.53125 -17.578125 C 26.351562 -16.617188 24.9375 -15.972656 23.28125 -15.640625 C 19.46875 -14.972656 17.410156 -16.554688 17.109375 -20.390625 C 17.109375 -21.210938 17.164062 -22.03125 17.28125 -22.84375 C 17.363281 -23.226562 17.40625 -23.613281 17.40625 -24 C 17.539062 -25.414062 17.519531 -26.191406 17.34375 -26.328125 C 17.164062 -26.472656 16.773438 -26.007812 16.171875 -24.9375 C 16.015625 -24.726562 15.863281 -24.507812 15.71875 -24.28125 C 14.789062 -22.726562 13.835938 -21.203125 12.859375 -19.703125 C 11.066406 -16.816406 8.894531 -14.285156 6.34375 -12.109375 C 4.8125 -10.835938 3.113281 -10.023438 1.25 -9.671875 C -1.8125 -9.015625 -3.769531 -10.148438 -4.625 -13.078125 C -4.96875 -14.234375 -5.101562 -15.421875 -5.03125 -16.640625 C -4.570312 -21.710938 -2.660156 -25.828125 0.703125 -28.984375 C 4.066406 -32.140625 8.238281 -33.734375 13.21875 -33.765625 C 14.65625 -33.597656 15.59375 -34.140625 16.03125 -35.390625 C 16.21875 -35.859375 16.40625 -36.34375 16.59375 -36.84375 C 17.539062 -39.300781 18.457031 -41.765625 19.34375 -44.234375 C 21.007812 -48.960938 22.6875 -53.71875 24.375 -58.5 C 25.757812 -62.28125 27.132812 -66.085938 28.5 -69.921875 C 28.90625 -71.097656 29.363281 -72.238281 29.875 -73.34375 C 30.113281 -73.882812 30.460938 -74.242188 30.921875 -74.421875 C 31.378906 -74.597656 31.867188 -74.726562 32.390625 -74.8125 C 32.492188 -74.832031 32.617188 -74.851562 32.765625 -74.875 C 33.335938 -74.96875 33.816406 -74.898438 34.203125 -74.671875 C 34.597656 -74.441406 34.726562 -74.0625 34.59375 -73.53125 C 34.414062 -72.289062 34.160156 -71.082031 33.828125 -69.90625 C 32.054688 -64.226562 30.441406 -58.503906 28.984375 -52.734375 C 27.535156 -46.972656 26.125 -41.175781 24.75 -35.34375 C 24.3125 -33.332031 23.863281 -31.320312 23.40625 -29.3125 C 22.8125 -26.957031 22.390625 -24.578125 22.140625 -22.171875 C 22.046875 -21.617188 22.039062 -21.09375 22.125 -20.59375 C 22.207031 -20.101562 22.519531 -19.703125 23.0625 -19.390625 C 23.414062 -19.242188 23.75 -19.265625 24.0625 -19.453125 C 24.382812 -19.640625 24.738281 -19.851562 25.125 -20.09375 C 25.15625 -20.1875 25.226562 -20.273438 25.34375 -20.359375 C 27.789062 -22.359375 29.96875 -24.644531 31.875 -27.21875 C 32.1875 -27.65625 32.53125 -28.035156 32.90625 -28.359375 C 33.28125 -28.679688 33.773438 -28.8125 34.390625 -28.75 Z M 12.78125 -28.09375 C 13.007812 -28.65625 13.019531 -29.160156 12.8125 -29.609375 C 12.613281 -30.054688 12.234375 -30.351562 11.671875 -30.5 C 10.535156 -30.894531 9.394531 -30.773438 8.25 -30.140625 C 5.457031 -28.785156 3.265625 -26.703125 1.671875 -23.890625 C 0.0859375 -21.085938 -0.539062 -18.175781 -0.21875 -15.15625 C -0.132812 -15.019531 -0.09375 -14.921875 -0.09375 -14.859375 C -0.0507812 -14.597656 -0.0078125 -14.335938 0.03125 -14.078125 C 0.519531 -12.753906 1.414062 -12.628906 2.71875 -13.703125 C 4.03125 -14.785156 5.425781 -16.410156 6.90625 -18.578125 C 8.382812 -20.753906 9.691406 -22.804688 10.828125 -24.734375 C 11.972656 -26.671875 12.625 -27.789062 12.78125 -28.09375 Z M 12.78125 -28.09375 "/></g></g></g></svg>